# xmcd CD database file
#
# Track frame offsets:
#	150
#	22674
#	45538
#	67608
#	88359
#	109616
#	127682
#	149906
#	169734
#
# Disc length: 2515 seconds
#
# Revision: 0
# Processed by: cddbd v1.5.1PL0 Copyright (c) Steve Scherf et al.
# Submitted via: CDex 1.51
#
DISCID=6d09d109
DTITLE=Bobby Cruz - Caminando
DYEAR=2002
DGENRE=Salsa
TTITLE0=Caminando
TTITLE1=El Viejo Hombre
TTITLE2=La Vision
TTITLE3=El Palo Ensebao
TTITLE4=Mas que un Vencedor
TTITLE5=Sin Saber Por Que
TTITLE6=El Centurion
TTITLE7=Medley (P'atra y P'atra - Hey, Tu Cuidado
TTITLE8=Dios Es Bueno
EXTD=YEAR: 2002
EXTT0=
EXTT1=
EXTT2=
EXTT3=
EXTT4=
EXTT5=
EXTT6=
EXTT7=
EXTT8=
PLAYORDER=
